<svg width="200" height="200" viewBox="0 0 200 200" fill="none" xmlns="http://www.w3.org/2000/svg">
<g clip-path="url(#clip0_30_63)">
<rect width="200" height="200" rx="50" fill="#171717"/>
<path d="M100 171.442C139.456 171.442 171.442 139.456 171.442 100C171.442 60.5437 139.456 28.558 100 28.558C60.5438 28.558 28.5581 60.5437 28.5581 100C28.5581 139.456 60.5438 171.442 100 171.442Z" stroke="#474747" stroke-width="13.608"/>
<path d="M100 28.558C114.13 28.558 127.942 32.748 139.691 40.5981C151.44 48.4483 160.597 59.606 166.004 72.6603C171.411 85.7146 172.826 100.079 170.069 113.938C167.313 127.796 160.508 140.526 150.517 150.517C140.526 160.508 127.796 167.313 113.938 170.069C100.079 172.826 85.7146 171.411 72.6603 166.004C59.606 160.597 48.4483 151.44 40.5981 139.691" stroke="white" stroke-width="13.608" stroke-linecap="round"/>
</g>
<defs>
<clipPath id="clip0_30_63">
<rect width="200" height="200" rx="45" fill="white"/>
</clipPath>
</defs>
</svg>
